<?xml version="1.0" encoding="iso-8859-1"?>
<!-- Generator: Adobe Illustrator 19.0.0, SVG Export Plug-In . SVG Version: 6.00 Build 0)  -->
<svg version="1.1" id="Layer_1" xmlns="http://www.w3.org/2000/svg" xmlns:xlink="http://www.w3.org/1999/xlink" x="0px" y="0px"
	 viewBox="0 0 496.2 496.2" style="enable-background:new 0 0 496.2 496.2;" xml:space="preserve">
<path style="fill:#25B7D3;" d="M496.2,248.1C496.2,111.1,385.1,0,248.1,0S0,111.1,0,248.1s111.1,248.1,248.1,248.1
	S496.2,385.1,496.2,248.1z"/>
<path style="fill:#EB7D28;" d="M323,356.7c-7-67.5-67.1-140.5-75-140.5s-67.7,73.1-74.7,140.5c-5.3,51,18,96.5,74.9,96.5
	C305,453.2,328.3,407.7,323,356.7z"/>
<path style="fill:#000100;" d="M302.5,321.7c0-5.1-3-9.9-8.1-14c-0.3-5.5-2.8-10.5-7.8-14.1s-11.7-5.4-19.2-5.7
	c-5.6-3.8-12.2-6-19.2-6s-13.6,2.2-19.2,6c-7.5,0.2-14.3,2.1-19.2,5.7c-5,3.6-7.5,8.6-7.8,14.1c-5.1,4.1-8.1,8.9-8.1,14
	s3,9.9,8.1,14c0.3,5.5,2.8,10.5,7.8,14.1s11.7,5.4,19.2,5.7c5.6,3.8,12.2,6,19.2,6s13.6-2.2,19.2-6c7.5-0.2,14.3-2,19.2-5.7
	c5-3.6,7.5-8.6,7.8-14.1C299.5,331.6,302.5,326.8,302.5,321.7z"/>
<polygon style="fill:#512A10;" points="263.9,285 232.3,285 238,113.4 258.2,113.4 "/>
<ellipse style="fill:#DD722A;" cx="248.1" cy="302.1" rx="32.3" ry="20.9"/>
<ellipse style="fill:#EDA16E;" cx="248.1" cy="302.1" rx="29.2" ry="18.8"/>
<ellipse style="fill:#000100;" cx="248.1" cy="302.1" rx="27.4" ry="17.7"/>
<path style="fill:#5F431D;" d="M271.5,79.6h-6.9c-1,0-1.9,0.8-1.9,1.9s0.8,1.9,1.9,1.9h6.9c1,0,1.9-0.8,1.9-1.9
	C273.3,80.4,272.5,79.6,271.5,79.6z"/>
<path style="fill:#7F592B;" d="M272.5,84.7c-1,0-1.9-0.4-1.9-0.9v-4.7c0-0.5,0.8-0.9,1.9-0.9l0,0c1,0,1.9,0.4,1.9,0.9v4.7
	C274.4,84.3,273.6,84.7,272.5,84.7L272.5,84.7z"/>
<g>
	<path style="fill:#5F431D;" d="M273.3,60c0-1.1-0.8-1.9-1.9-1.9h-15.8c-1,0-1.9,0.8-1.9,1.9s0.8,1.9,1.9,1.9h15.8
		C272.5,61.9,273.3,61,273.3,60z"/>
	<path style="fill:#5F431D;" d="M271.5,69h-11c-1,0-1.9,0.8-1.9,1.9c0,1,0.8,1.9,1.9,1.9h11c1,0,1.9-0.8,1.9-1.9
		C273.3,69.8,272.5,69,271.5,69z"/>
</g>
<g>
	<path style="fill:#7F592B;" d="M272.5,63.2c-1,0-1.9-0.4-1.9-0.9v-4.7c0-0.5,0.8-0.9,1.9-0.9l0,0c1,0,1.9,0.4,1.9,0.9v4.7
		C274.4,62.9,273.6,63.2,272.5,63.2L272.5,63.2z"/>
	<path style="fill:#7F592B;" d="M272.5,74.1c-1,0-1.9-0.4-1.9-0.9v-4.8c0-0.5,0.8-0.9,1.9-0.9l0,0c1,0,1.9,0.4,1.9,0.9v4.8
		C274.4,73.7,273.6,74.1,272.5,74.1L272.5,74.1z"/>
</g>
<path style="fill:#5F431D;" d="M273.3,92.4c0-1.1-0.8-1.9-1.9-1.9h-11c-1,0-1.9,0.8-1.9,1.9s0.8,1.9,1.9,1.9h11
	C272.5,94.3,273.3,93.5,273.3,92.4"/>
<path style="fill:#7F592B;" d="M272.5,95.7c-1,0-1.9-0.4-1.9-0.9V90c0-0.5,0.8-0.9,1.9-0.9l0,0c1,0,1.9,0.4,1.9,0.9v4.8
	C274.4,95.3,273.6,95.7,272.5,95.7L272.5,95.7z"/>
<path style="fill:#5F431D;" d="M224.9,79.6h6.9c1,0,1.9,0.8,1.9,1.9s-0.8,1.9-1.9,1.9h-6.9c-1,0-1.9-0.8-1.9-1.9
	C223,80.4,223.8,79.6,224.9,79.6z"/>
<path style="fill:#7F592B;" d="M223.8,84.7c1,0,1.9-0.4,1.9-0.9v-4.7c0-0.5-0.8-0.9-1.9-0.9l0,0c-1.1,0-1.9,0.4-1.9,0.9v4.7
	C221.9,84.3,222.7,84.7,223.8,84.7L223.8,84.7z"/>
<g>
	<path style="fill:#5F431D;" d="M223,60c0-1.1,0.8-1.9,1.9-1.9h15.8c1,0,1.9,0.8,1.9,1.9s-0.8,1.9-1.9,1.9h-15.8
		C223.8,61.9,223,61,223,60z"/>
	<path style="fill:#5F431D;" d="M224.9,69h11c1,0,1.9,0.8,1.9,1.9c0,1-0.8,1.9-1.9,1.9h-11c-1,0-1.9-0.8-1.9-1.9
		C223,69.8,223.8,69,224.9,69z"/>
</g>
<g>
	<path style="fill:#7F592B;" d="M223.8,63.2c1,0,1.9-0.4,1.9-0.9v-4.7c0-0.5-0.8-0.9-1.9-0.9l0,0c-1.1,0-1.9,0.4-1.9,0.9v4.7
		C221.9,62.9,222.7,63.2,223.8,63.2L223.8,63.2z"/>
	<path style="fill:#7F592B;" d="M223.8,74.1c1,0,1.9-0.4,1.9-0.9v-4.8c0-0.5-0.8-0.9-1.9-0.9l0,0c-1.1,0-1.9,0.4-1.9,0.9v4.8
		C221.9,73.7,222.7,74.1,223.8,74.1L223.8,74.1z"/>
</g>
<path style="fill:#5F431D;" d="M223,92.4c0-1.1,0.8-1.9,1.9-1.9h11c1,0,1.9,0.8,1.9,1.9s-0.8,1.9-1.9,1.9h-11
	C223.8,94.3,223,93.5,223,92.4"/>
<path style="fill:#7F592B;" d="M223.8,95.7c1,0,1.9-0.4,1.9-0.9V90c0-0.5-0.8-0.9-1.9-0.9l0,0c-1.1,0-1.9,0.4-1.9,0.9v4.8
	C221.9,95.3,222.7,95.7,223.8,95.7L223.8,95.7z"/>
<path style="fill:#FFFFFF;" d="M261.8,444.1c1.6-3.7,1.9-6.7,0.3-8.3c-1.6-1.6-4.7-1.3-8.3,0.3c-1.4-3.8-3.4-6.1-5.7-6.1
	s-4.2,2.3-5.7,6.1c-3.7-1.6-6.7-1.9-8.3-0.3s-1.3,4.7,0.3,8.3c-3.7,1.4-6.1,3.4-6.1,5.7c0,0.5,0.1,0.9,0.3,1.4c6,1.3,12.5,2,19.5,2
	s13.5-0.7,19.4-2c0.2-0.5,0.3-0.9,0.3-1.4C267.9,447.6,265.6,445.6,261.8,444.1z"/>
<g>
	<polygon style="fill:#512A10;" points="263.7,99.4 232.5,99.4 229.2,52 248.1,43 267,52 	"/>
	<polygon style="fill:#512A10;" points="258.2,113.4 238,113.4 232.5,99.4 263.7,99.4 	"/>
</g>
<g>
	<polygon style="fill:#FFFFFF;" points="240.9,444.5 239.4,444.5 241.7,113.2 238.3,81.2 239.8,81.1 243.3,113.1 	"/>
	<polygon style="fill:#FFFFFF;" points="246.2,444.5 244.7,444.5 244.7,113.2 237.1,60 238.6,59.8 246.2,113.2 	"/>
	<polygon style="fill:#FFFFFF;" points="251.5,444.5 250,444.5 250,113.1 250,113.1 257.6,59.9 259.1,60.1 251.5,113.2 	"/>
	<polygon style="fill:#FFFFFF;" points="255.3,444.5 252.9,113.2 256.4,81.2 257.9,81.4 254.5,113.3 256.8,444.5 	"/>
</g>
<path style="fill:#000100;" d="M288,381.5h-79.9c-0.4,0-0.8-0.4-0.8-0.8s0.4-0.8,0.8-0.8H288c0.4,0,0.8,0.4,0.8,0.8
	C288.8,381.1,288.5,381.5,288,381.5z"/>
<g>
	<circle style="fill:#FFFFFF;" cx="235.5" cy="59.8" r="3.2"/>
	<circle style="fill:#FFFFFF;" cx="237.9" cy="92.3" r="3.2"/>
	<circle style="fill:#FFFFFF;" cx="236.7" cy="81.4" r="3.2"/>
	<circle style="fill:#FFFFFF;" cx="236" cy="70.7" r="3.2"/>
	<circle style="fill:#FFFFFF;" cx="260.7" cy="59.8" r="3.2"/>
	<circle style="fill:#FFFFFF;" cx="258.3" cy="92.3" r="3.2"/>
	<circle style="fill:#FFFFFF;" cx="259.5" cy="81.4" r="3.2"/>
	<circle style="fill:#FFFFFF;" cx="260.2" cy="70.7" r="3.2"/>
</g>
<g>
</g>
<g>
</g>
<g>
</g>
<g>
</g>
<g>
</g>
<g>
</g>
<g>
</g>
<g>
</g>
<g>
</g>
<g>
</g>
<g>
</g>
<g>
</g>
<g>
</g>
<g>
</g>
<g>
</g>
</svg>
